# xmcd
# 
# Track frame offsets:
#     150
#     20985
#     34095
#     45532
#     69412
#     85370
#     106130
#     127547
#     143460
#     153195
#     168625
#     188797
#     209072
# 
# Disc length: 3006
# 
# Revision: 1
# Processed by: cddbd v1.5.2PL0 Copyright (c) Steve Scherf et al.
# Submitted via: fre:ac v1.0.17
# 
DISCID=aa0bbc0d
DTITLE=Noon - My Fairy Tale
DYEAR=2004
DGENRE=Jazz
TTITLE0=Tea For Two
TTITLE1=Here, There And Everywhere
TTITLE2=Raindrops Keep Falling On My Head
TTITLE3=Someone To Watch Over Me
TTITLE4=I've Got Just About Everything
TTITLE5=So Far Away
TTITLE6=Tears In Heaven
TTITLE7=What A Difference A Day Made
TTITLE8=Recipe For Love
TTITLE9=Sunny
TTITLE10=When You Wish Upon A Star
TTITLE11=Will You Still Love Me Tomorrow
TTITLE12=Close To You
EXTD=YEAR: 2004
EXTT0=
EXTT1=
EXTT2=
EXTT3=
EXTT4=
EXTT5=
EXTT6=
EXTT7=
EXTT8=
EXTT9=
EXTT10=
EXTT11=
EXTT12=
PLAYORDER=
